<svg xmlns="http://www.w3.org/2000/svg" version="1.1" xmlns:xlink="http://www.w3.org/1999/xlink" xmlns:svgjs="http://svgjs.dev/svgjs" width="1500" height="340" viewBox="0 0 1500 340"><g transform="matrix(1,0,0,1,-0.9090909090909918,-0.06489855740528583)"><svg viewBox="0 0 396 90" data-background-color="#cfe6e2" preserveAspectRatio="xMidYMid meet" height="340" width="1500" xmlns="http://www.w3.org/2000/svg" xmlns:xlink="http://www.w3.org/1999/xlink"><g id="tight-bounds" transform="matrix(1,0,0,1,0.2400000000000091,0.01717902990139919)"><svg viewBox="0 0 395.52 89.9656419401972" height="89.9656419401972" width="395.52"><g><svg viewBox="0 0 545.7000162513584 124.12584008098075" height="89.9656419401972" width="395.52"><g transform="matrix(1,0,0,1,150.18001625135847,17.154873701495895)"><svg viewBox="0 0 395.52 89.81609267798896" height="89.81609267798896" width="395.52"><g id="textblocktransform"><svg viewBox="0 0 395.52 89.81609267798896" height="89.81609267798896" width="395.52" id="textblock"><g><svg viewBox="0 0 395.52 89.81609267798896" height="89.81609267798896" width="395.52"><g transform="matrix(1,0,0,1,0,0)"><svg width="395.52" viewBox="2 -37.99 217.04 49.29" height="89.81609267798896" data-palette-color="#43766c"><path d="M18.75-34.4L18.75-34.4Q18.09-34.4 17.21-34.13 16.33-33.86 15.42-33.12 14.5-32.37 13.62-31.03 12.74-29.69 12.05-27.55 11.35-25.42 10.93-22.36 10.5-19.31 10.5-15.16L10.5-15.16Q10.5-11.21 10.93-8.3 11.35-5.4 12.07-3.36 12.79-1.32 13.72-0.02 14.65 1.27 15.67 1.99 16.7 2.71 17.72 2.98 18.75 3.25 19.65 3.25L19.65 3.25Q20.61 3.25 21.58 3 22.56 2.76 23.5 2.29 24.44 1.83 25.31 1.17 26.17 0.51 26.9-0.34L26.9-0.34 28 0.76Q27.27 1.66 26.25 2.6 25.22 3.54 23.86 4.31 22.51 5.08 20.83 5.57 19.14 6.05 17.09 6.05L17.09 6.05Q13.89 6.05 11.15 4.83 8.4 3.61 6.36 1.04 4.32-1.54 3.16-5.57 2-9.59 2-15.21L2-15.21Q2-20.48 3.22-24.46 4.44-28.44 6.54-31.12 8.64-33.79 11.47-35.14 14.31-36.5 17.5-36.5L17.5-36.5Q19.63-36.5 21.37-36.1 23.12-35.69 24.39-34.92 25.66-34.16 26.35-33.02 27.05-31.88 27.05-30.44L27.05-30.44Q27.05-29.79 26.83-29.06 26.61-28.34 26.16-27.75 25.71-27.15 25.05-26.77 24.39-26.39 23.51-26.39L23.51-26.39Q22.73-26.39 22.3-26.73 21.88-27.08 21.67-27.64 21.46-28.2 21.4-28.92 21.34-29.64 21.31-30.4 21.29-31.15 21.2-31.87 21.12-32.59 20.86-33.15 20.61-33.72 20.12-34.06 19.63-34.4 18.75-34.4ZM41.28-6.69L41.28-12.65Q41.28-13.26 40.89-13.57 40.5-13.89 39.89-13.89L39.89-13.89Q39.04-13.89 38.27-13.5 37.5-13.11 36.91-12.35 36.33-11.6 35.98-10.49 35.64-9.38 35.64-7.91L35.64-7.91Q35.64-6.49 35.85-5.57 36.06-4.64 36.41-4.09 36.77-3.54 37.23-3.32 37.69-3.1 38.21-3.1L38.21-3.1Q38.84-3.1 39.4-3.43 39.96-3.76 40.38-4.27 40.79-4.79 41.04-5.42 41.28-6.05 41.28-6.69L41.28-6.69ZM37.4-23.34L37.4-23.34Q36.57-23.34 35.86-23.14 35.15-22.95 34.64-22.66 34.13-22.36 33.84-22.01 33.54-21.66 33.54-21.34L33.54-21.34Q33.54-20.97 33.92-20.81 34.3-20.65 34.76-20.45 35.23-20.24 35.61-19.86 35.98-19.48 35.98-18.7L35.98-18.7Q35.98-18.19 35.78-17.76 35.57-17.33 35.21-17 34.86-16.67 34.38-16.49 33.91-16.31 33.4-16.31L33.4-16.31Q32.03-16.31 31.19-17.24 30.34-18.16 30.34-19.7L30.34-19.7Q30.34-21.19 31.13-22.25 31.91-23.32 33.16-24 34.42-24.68 36.01-25.01 37.6-25.34 39.18-25.34L39.18-25.34Q41.09-25.34 42.82-24.93 44.55-24.51 45.88-23.61 47.21-22.71 48.01-21.31 48.8-19.92 48.8-17.94L48.8-17.94 48.8-4.15Q48.8-3.93 48.83-3.66 48.85-3.39 48.95-3.17 49.05-2.95 49.24-2.81 49.44-2.66 49.8-2.66L49.8-2.66Q50.24-2.66 50.62-2.99 51-3.32 51.29-3.66L51.29-3.66 51.9-3.15Q51.54-2.64 51.02-2.03 50.51-1.42 49.78-0.88 49.05-0.34 48.07 0.02 47.09 0.39 45.85 0.39L45.85 0.39Q44.31 0.39 43.11-0.52 41.92-1.44 41.55-3.34L41.55-3.34Q40.77-2.29 39.93-1.59 39.08-0.88 38.21-0.44 37.33 0 36.44 0.2 35.54 0.39 34.64 0.39L34.64 0.39Q33.47 0.39 32.37 0.02 31.27-0.34 30.41-1.14 29.54-1.93 29.01-3.2 28.49-4.47 28.49-6.3L28.49-6.3Q28.49-8.52 29.37-9.94 30.25-11.35 31.67-12.32 33.1-13.28 34.92-13.96 36.74-14.65 38.64-15.41L38.64-15.41Q40.06-15.97 40.71-17.08 41.35-18.19 41.35-19.36L41.35-19.36Q41.35-21.17 40.29-22.25 39.23-23.34 37.4-23.34ZM62.98-20.19L62.98-20.19Q63.91-21.61 64.96-22.75L64.96-22.75Q65.4-23.24 65.91-23.71 66.43-24.17 66.97-24.54 67.52-24.9 68.11-25.12 68.7-25.34 69.28-25.34L69.28-25.34Q70.53-25.34 71.24-24.6 71.94-23.85 71.94-22.51L71.94-22.51Q71.94-21.68 71.81-20.91 71.67-20.14 71.28-19.04L71.28-19.04 70.6-19.04Q70.45-19.8 69.92-20.3 69.38-20.8 68.35-20.8L68.35-20.8Q67.6-20.8 66.87-20.52 66.13-20.24 65.44-19.82 64.74-19.41 64.12-18.92 63.5-18.43 62.98-17.99L62.98-17.99 62.98-2.15Q62.98-1.83 62.89-1.39 62.79-0.95 62.41-0.56 62.03-0.17 61.29 0.11 60.54 0.39 59.25 0.39L59.25 0.39Q57.95 0.39 57.21 0.09 56.46-0.22 56.07-0.63 55.68-1.05 55.59-1.49 55.49-1.93 55.49-2.2L55.49-2.2 55.49-21.04Q55.49-21.75 55.16-22.28 54.83-22.8 54.05-22.8L54.05-22.8Q53.63-22.8 53.34-22.66 53.05-22.51 52.7-22.24L52.7-22.24 52.19-22.85Q52.75-23.32 53.45-23.77 54.15-24.22 54.95-24.56 55.76-24.9 56.68-25.12 57.61-25.34 58.64-25.34L58.64-25.34Q59.69-25.34 60.43-25.06 61.18-24.78 61.65-24.33 62.13-23.88 62.4-23.32 62.67-22.75 62.8-22.18 62.93-21.61 62.96-21.08 62.98-20.56 62.98-20.19ZM90.74-34.4L90.74-34.4Q90.08-34.4 89.2-34.13 88.32-33.86 87.41-33.12 86.49-32.37 85.61-31.03 84.73-29.69 84.04-27.55 83.34-25.42 82.91-22.36 82.49-19.31 82.49-15.16L82.49-15.16Q82.49-11.21 82.91-8.3 83.34-5.4 84.06-3.36 84.78-1.32 85.71-0.02 86.64 1.27 87.66 1.99 88.69 2.71 89.71 2.98 90.74 3.25 91.64 3.25L91.64 3.25Q92.6 3.25 93.57 3 94.55 2.76 95.49 2.29 96.43 1.83 97.29 1.17 98.16 0.51 98.89-0.34L98.89-0.34 99.99 0.76Q99.26 1.66 98.23 2.6 97.21 3.54 95.85 4.31 94.5 5.08 92.81 5.57 91.13 6.05 89.08 6.05L89.08 6.05Q85.88 6.05 83.13 4.83 80.39 3.61 78.35 1.04 76.31-1.54 75.15-5.57 73.99-9.59 73.99-15.21L73.99-15.21Q73.99-20.48 75.21-24.46 76.43-28.44 78.53-31.12 80.63-33.79 83.46-35.14 86.3-36.5 89.49-36.5L89.49-36.5Q91.62-36.5 93.36-36.1 95.11-35.69 96.38-34.92 97.65-34.16 98.34-33.02 99.04-31.88 99.04-30.44L99.04-30.44Q99.04-29.79 98.82-29.06 98.6-28.34 98.15-27.75 97.7-27.15 97.04-26.77 96.38-26.39 95.5-26.39L95.5-26.39Q94.72-26.39 94.29-26.73 93.86-27.08 93.66-27.64 93.45-28.2 93.39-28.92 93.33-29.64 93.3-30.4 93.28-31.15 93.19-31.87 93.11-32.59 92.85-33.15 92.6-33.72 92.11-34.06 91.62-34.4 90.74-34.4ZM110.07-20.19L110.07-20.19Q111-21.61 112.05-22.75L112.05-22.75Q112.49-23.24 113-23.71 113.52-24.17 114.06-24.54 114.61-24.9 115.2-25.12 115.79-25.34 116.37-25.34L116.37-25.34Q117.62-25.34 118.32-24.6 119.03-23.85 119.03-22.51L119.03-22.51Q119.03-21.68 118.9-20.91 118.76-20.14 118.37-19.04L118.37-19.04 117.69-19.04Q117.54-19.8 117.01-20.3 116.47-20.8 115.44-20.8L115.44-20.8Q114.69-20.8 113.95-20.52 113.22-20.24 112.53-19.82 111.83-19.41 111.21-18.92 110.59-18.43 110.07-17.99L110.07-17.99 110.07-2.15Q110.07-1.83 109.98-1.39 109.88-0.95 109.5-0.56 109.12-0.17 108.38 0.11 107.63 0.39 106.34 0.39L106.34 0.39Q105.04 0.39 104.3 0.09 103.55-0.22 103.16-0.63 102.77-1.05 102.68-1.49 102.58-1.93 102.58-2.2L102.58-2.2 102.58-21.04Q102.58-21.75 102.25-22.28 101.92-22.8 101.14-22.8L101.14-22.8Q100.72-22.8 100.43-22.66 100.14-22.51 99.79-22.24L99.79-22.24 99.28-22.85Q99.84-23.32 100.54-23.77 101.24-24.22 102.04-24.56 102.85-24.9 103.77-25.12 104.7-25.34 105.73-25.34L105.73-25.34Q106.78-25.34 107.52-25.06 108.27-24.78 108.74-24.33 109.22-23.88 109.49-23.32 109.76-22.75 109.89-22.18 110.02-21.61 110.05-21.08 110.07-20.56 110.07-20.19ZM132.63-6.69L132.63-12.65Q132.63-13.26 132.24-13.57 131.85-13.89 131.24-13.89L131.24-13.89Q130.38-13.89 129.61-13.5 128.84-13.11 128.26-12.35 127.67-11.6 127.33-10.49 126.99-9.38 126.99-7.91L126.99-7.91Q126.99-6.49 127.2-5.57 127.4-4.64 127.76-4.09 128.11-3.54 128.58-3.32 129.04-3.1 129.55-3.1L129.55-3.1Q130.19-3.1 130.75-3.43 131.31-3.76 131.73-4.27 132.14-4.79 132.38-5.42 132.63-6.05 132.63-6.69L132.63-6.69ZM128.75-23.34L128.75-23.34Q127.92-23.34 127.21-23.14 126.5-22.95 125.99-22.66 125.48-22.36 125.18-22.01 124.89-21.66 124.89-21.34L124.89-21.34Q124.89-20.97 125.27-20.81 125.65-20.65 126.11-20.45 126.57-20.24 126.95-19.86 127.33-19.48 127.33-18.7L127.33-18.7Q127.33-18.19 127.12-17.76 126.92-17.33 126.56-17 126.21-16.67 125.73-16.49 125.26-16.31 124.74-16.31L124.74-16.31Q123.38-16.31 122.53-17.24 121.69-18.16 121.69-19.7L121.69-19.7Q121.69-21.19 122.47-22.25 123.25-23.32 124.51-24 125.77-24.68 127.36-25.01 128.94-25.34 130.53-25.34L130.53-25.34Q132.43-25.34 134.17-24.93 135.9-24.51 137.23-23.61 138.56-22.71 139.36-21.31 140.15-19.92 140.15-17.94L140.15-17.94 140.15-4.15Q140.15-3.93 140.17-3.66 140.2-3.39 140.3-3.17 140.39-2.95 140.59-2.81 140.78-2.66 141.15-2.66L141.15-2.66Q141.59-2.66 141.97-2.99 142.35-3.32 142.64-3.66L142.64-3.66 143.25-3.15Q142.88-2.64 142.37-2.03 141.86-1.42 141.13-0.88 140.39-0.34 139.42 0.02 138.44 0.39 137.19 0.39L137.19 0.39Q135.66 0.39 134.46-0.52 133.26-1.44 132.9-3.34L132.9-3.34Q132.12-2.29 131.27-1.59 130.43-0.88 129.55-0.44 128.67 0 127.78 0.2 126.89 0.39 125.99 0.39L125.99 0.39Q124.82 0.39 123.72 0.02 122.62-0.34 121.75-1.14 120.89-1.93 120.36-3.2 119.84-4.47 119.84-6.3L119.84-6.3Q119.84-8.52 120.72-9.94 121.59-11.35 123.02-12.32 124.45-13.28 126.27-13.96 128.09-14.65 129.99-15.41L129.99-15.41Q131.41-15.97 132.06-17.08 132.7-18.19 132.7-19.36L132.7-19.36Q132.7-21.17 131.64-22.25 130.58-23.34 128.75-23.34ZM158.58-36.3L158.58-36.3Q157.9-36.3 157.28-36.01 156.67-35.72 156.22-35.07 155.77-34.42 155.5-33.42 155.23-32.42 155.23-31.01L155.23-31.01 155.23-25 160.58-25 160.58-23.24 155.23-23.24 155.23-4Q155.23-0.68 154.37 2.12 153.5 4.93 151.74 6.97 149.99 9.01 147.35 10.16 144.71 11.3 141.2 11.3L141.2 11.3Q139.95 11.3 138.8 11.1 137.66 10.89 136.78 10.52 135.9 10.16 135.37 9.66 134.85 9.16 134.85 8.54L134.85 8.54Q134.85 8.11 134.97 7.65 135.09 7.2 135.34 6.84 135.58 6.47 135.93 6.24 136.29 6.01 136.75 6.01L136.75 6.01Q137.02 6.01 137.23 6.27 137.44 6.54 137.66 6.93 137.88 7.32 138.16 7.8 138.44 8.28 138.88 8.67 139.32 9.06 139.96 9.33 140.61 9.59 141.54 9.59L141.54 9.59Q142.78 9.59 143.74 9.09 144.69 8.59 145.37 7.71 146.05 6.84 146.52 5.64 146.98 4.44 147.25 3.08 147.52 1.71 147.63 0.22 147.74-1.27 147.74-2.76L147.74-2.76 147.74-23.24 143.25-23.24 143.25-25 147.74-25 147.74-27.86Q147.74-30 148.26-31.6 148.79-33.2 149.66-34.33 150.52-35.45 151.62-36.16 152.72-36.87 153.85-37.28 154.99-37.7 156.06-37.84 157.14-37.99 157.94-37.99L157.94-37.99Q159.68-37.99 161.02-37.73 162.36-37.48 163.27-37.05 164.17-36.62 164.63-36.06 165.1-35.5 165.1-34.91L165.1-34.91Q165.1-34.47 164.96-34.02 164.83-33.57 164.58-33.19 164.34-32.81 163.99-32.58 163.63-32.35 163.19-32.35L163.19-32.35Q162.92-32.35 162.7-32.64 162.49-32.93 162.24-33.37 162-33.81 161.7-34.33 161.41-34.84 160.98-35.28 160.56-35.72 159.97-36.01 159.38-36.3 158.58-36.3ZM174.49-23.24L170.71-23.24 170.71-5.2Q170.71-3.91 171.2-3.41 171.69-2.91 172.54-2.91L172.54-2.91Q173.2-2.91 173.71-3.27 174.23-3.64 174.59-4.1L174.59-4.1Q175.03-4.61 175.35-5.3L175.35-5.3 176.11-4.96Q175.74-4.17 175.24-3.25 174.74-2.32 173.91-1.53 173.08-0.73 171.82-0.2 170.56 0.34 168.66 0.34L168.66 0.34Q167.59 0.34 166.6 0.02 165.61-0.29 164.84-0.98 164.07-1.66 163.61-2.69 163.14-3.71 163.14-5.15L163.14-5.15 163.14-23.24 160.41-23.24 160.41-25Q161.09-25 162.31-25.35 163.53-25.71 164.81-26.54 166.1-27.37 167.19-28.76 168.29-30.15 168.76-32.2L168.76-32.2 170.71-32.2 170.71-25 174.69-25Q176.64-25 176.64-25.66L176.64-25.66Q176.64-25.9 176.4-25.99 176.15-26.07 175.85-26.21 175.54-26.34 175.3-26.59 175.06-26.83 175.06-27.39L175.06-27.39Q175.06-28.08 175.48-28.47 175.91-28.86 176.59-28.86L176.59-28.86Q177.03-28.86 177.36-28.67 177.69-28.49 177.91-28.19 178.13-27.88 178.24-27.49 178.35-27.1 178.35-26.71L178.35-26.71Q178.35-25.12 177.44-24.18 176.52-23.24 174.49-23.24L174.49-23.24ZM195.1-16.89L185.45-11.21Q185.45-10.42 185.69-9.51 185.92-8.59 186.36-7.67 186.8-6.74 187.44-5.9 188.09-5.05 188.93-4.39 189.77-3.74 190.8-3.34 191.83-2.95 193.05-2.95L193.05-2.95Q193.9-2.95 194.63-3.15 195.37-3.34 196-3.69 196.64-4.03 197.22-4.48 197.81-4.93 198.39-5.44L198.39-5.44 199-4.86Q198.44-4.1 197.56-3.2 196.68-2.29 195.44-1.5 194.19-0.71 192.53-0.18 190.87 0.34 188.75 0.34L188.75 0.34Q186.63 0.34 184.61-0.43 182.6-1.2 181.03-2.73 179.47-4.27 178.53-6.57 177.59-8.86 177.59-11.94L177.59-11.94Q177.59-14.16 178.15-16.02 178.72-17.87 179.68-19.36 180.64-20.85 181.93-21.97 183.21-23.1 184.62-23.84 186.04-24.58 187.52-24.96 188.99-25.34 190.36-25.34L190.36-25.34Q192.17-25.34 193.51-24.95 194.85-24.56 195.74-23.9 196.64-23.24 197.07-22.38 197.51-21.51 197.51-20.56L197.51-20.56Q197.51-19.41 196.86-18.49 196.2-17.58 195.1-16.89L195.1-16.89ZM185.21-13.21L190.36-16.16Q190.68-16.36 190.89-16.54 191.09-16.72 191.22-16.98 191.34-17.24 191.4-17.61 191.46-17.99 191.46-18.55L191.46-18.55Q191.46-19.17 191.33-19.91 191.19-20.65 190.87-21.31 190.56-21.97 190.07-22.41 189.58-22.85 188.9-22.85L188.9-22.85Q188.02-22.85 187.39-22.33 186.77-21.8 186.37-20.97 185.97-20.14 185.73-19.08 185.5-18.02 185.38-16.94 185.26-15.87 185.23-14.88 185.21-13.89 185.21-13.21L185.21-13.21ZM210.08-20.19L210.08-20.19Q211.01-21.61 212.06-22.75L212.06-22.75Q212.5-23.24 213.01-23.71 213.53-24.17 214.08-24.54 214.63-24.9 215.21-25.12 215.8-25.34 216.38-25.34L216.38-25.34Q217.63-25.34 218.34-24.6 219.04-23.85 219.04-22.51L219.04-22.51Q219.04-21.68 218.91-20.91 218.78-20.14 218.39-19.04L218.39-19.04 217.7-19.04Q217.56-19.8 217.02-20.3 216.48-20.8 215.46-20.8L215.46-20.8Q214.7-20.8 213.97-20.52 213.23-20.24 212.54-19.82 211.84-19.41 211.22-18.92 210.6-18.43 210.08-17.99L210.08-17.99 210.08-2.15Q210.08-1.83 209.99-1.39 209.89-0.95 209.51-0.56 209.13-0.17 208.39 0.11 207.64 0.39 206.35 0.39L206.35 0.39Q205.06 0.39 204.31 0.09 203.57-0.22 203.18-0.63 202.79-1.05 202.69-1.49 202.59-1.93 202.59-2.2L202.59-2.2 202.59-21.04Q202.59-21.75 202.26-22.28 201.93-22.8 201.15-22.8L201.15-22.8Q200.73-22.8 200.44-22.66 200.15-22.51 199.81-22.24L199.81-22.24 199.29-22.85Q199.86-23.32 200.55-23.77 201.25-24.22 202.05-24.56 202.86-24.9 203.79-25.12 204.71-25.34 205.74-25.34L205.74-25.34Q206.79-25.34 207.53-25.06 208.28-24.78 208.75-24.33 209.23-23.88 209.5-23.32 209.77-22.75 209.9-22.18 210.04-21.61 210.06-21.08 210.08-20.56 210.08-20.19Z" opacity="1" transform="matrix(1,0,0,1,0,0)" fill="#43766c" class="wordmark-text-0" data-fill-palette-color="primary" id="text-0"></path></svg></g></svg></g></svg></g></svg></g><g><svg viewBox="0 0 128.97659235630954 124.12584008098075" height="124.12584008098075" width="128.97659235630954"><g><svg xmlns="http://www.w3.org/2000/svg" xmlns:xlink="http://www.w3.org/1999/xlink" version="1.1" x="0" y="0" viewBox="1.294 3.7839902480806273 97.342 93.68101067349795" enable-background="new 0 0 100 100" xml:space="preserve" height="124.12584008098075" width="128.97659235630954" class="icon-icon-0" data-fill-palette-color="accent" id="icon-0"><g fill="#43766c" data-fill-palette-color="accent"><path d="M75.984 64.604H23.601C25.321 68.217 36.391 71.004 49.793 71.004 63.193 71.004 74.266 68.217 75.984 64.604M6.639 54.232C6.475 57.497 10.328 60.948 15.245 61.935 20.161 62.924 24.278 61.081 24.442 57.816 24.606 54.548 20.753 51.099 15.837 50.11S6.803 50.967 6.639 54.232M49.791 8.024C38.698 8.095 25.766 8.495 15.15 11.048 14.208 11.228 14.097 12.219 14.097 12.219L13.188 36.361C13.11 40.548 17.893 42.451 49.79 42.552 81.689 42.451 86.471 40.548 86.394 36.361L85.484 12.219S85.375 11.228 84.431 11.048C73.814 8.495 60.884 8.095 49.791 8.024M92.941 54.232C92.777 50.965 88.662 49.12 83.746 50.11 78.83 51.099 74.976 54.548 75.141 57.816 75.305 61.082 79.421 62.924 84.337 61.935 89.255 60.948 93.105 57.497 92.941 54.232M49.966 88.538L47.05 88.536C36.216 88.495 25.589 88.285 16.748 87.636V92.569A4.895 4.895 0 0 1 11.852 97.465H7.826A4.893 4.893 0 0 1 2.93 92.569V82.268C2.825 81.352 2.714 80.298 2.606 79.121 1.774 74.804 1.294 69.703 1.294 64.235 1.294 57.303 2.068 50.955 3.35 46.051 3.604 44.934 3.912 43.937 4.261 43.048 4.368 42.743 4.479 42.446 4.591 42.157L9.462 8.825S9.658 7.437 10.901 7.127C22.079 4.085 49.031 3.782 49.966 3.784 50.899 3.782 77.854 4.085 89.029 7.127 90.271 7.437 90.47 8.825 90.47 8.825L95.338 42.157C95.449 42.446 95.562 42.743 95.668 43.048 96.017 43.937 96.324 44.934 96.58 46.051 97.86 50.954 98.636 57.303 98.636 64.235 98.636 69.703 98.156 74.802 97.324 79.121A133 133 0 0 1 96.999 82.268V92.569A4.894 4.894 0 0 1 92.105 97.465H88.078A4.894 4.894 0 0 1 83.182 92.569V87.637C74.341 88.285 63.715 88.495 52.88 88.536z" fill="#43766c" data-fill-palette-color="accent"></path></g></svg></g></svg></g></svg></g><defs></defs></svg><rect width="395.52" height="89.9656419401972" fill="none" stroke="none" visibility="hidden"></rect></g></svg></g></svg>